<mxfile host="app.diagrams.net" modified="2024-04-18T08:04:44.095Z" agent="Mozilla/5.0 (X11; Linux x86_64) AppleWebKit/537.36 (KHTML, like Gecko) Chrome/119.0.0.0 Safari/537.36" version="24.2.5" etag="QUyF8y6aLlPy587PL20F" type="github">
  <diagram name="Page-1" id="l_OiwGUTq0qdKfJkXdF_">
    <mxGraphModel>
      <root>
        <mxCell id="0" />
        <mxCell id="1" parent="0" />
      </root>
    </mxGraphModel>
  </diagram>
</mxfile>
